<svg xmlns="http://www.w3.org/2000/svg" viewBox="0 0 100 100">
  <defs>
    <linearGradient id="flameGrad" x1="50%" y1="0%" x2="50%" y2="100%">
      <stop offset="0%"  stop-color="#ffb347"/>
      <stop offset="50%" stop-color="#ff7a33"/>
      <stop offset="100%" stop-color="#ff5a00"/>
    </linearGradient>
    <radialGradient id="coreGrad" cx="50%" cy="65%" r="35%">
      <stop offset="0%"  stop-color="#ffe6b3" stop-opacity="0.9"/>
      <stop offset="100%" stop-color="#ff5a00" stop-opacity="0"/>
    </radialGradient>
  </defs>
  <rect width="100" height="100" rx="20" fill="#121217" stroke="#2a2a35" stroke-width="1.5"/>
  <g transform="translate(50 56)">
    <path d="M0 -36
             C 14 -22, 22 -8, 22 8
             C 22 22, 11 30, 0 30
             C -11 30, -22 22, -22 8
             C -22 -2, -14 -10, -8 -16
             C -4 -20, -2 -26, 0 -36 Z"
          fill="url(#flameGrad)"/>
    <ellipse cx="0" cy="10" rx="14" ry="18" fill="url(#coreGrad)"/>
    <path d="M0 -8
             C 6 -2, 9 4, 9 10
             C 9 17, 4 22, 0 22
             C -4 22, -9 17, -9 10
             C -9 4, -6 -2, 0 -8 Z"
          fill="#ffd699" opacity="0.7"/>
  </g>
</svg>
