<svg xmlns="http://www.w3.org/2000/svg" viewBox="0 0 100 100">
  <rect width="100" height="100" rx="20" fill="#000"/>
  <g transform="translate(50 56)">
    <path d="M0 -36
             C 14 -22, 22 -8, 22 8
             C 22 22, 11 30, 0 30
             C -11 30, -22 22, -22 8
             C -22 -2, -14 -10, -8 -16
             C -4 -20, -2 -26, 0 -36 Z"
          fill="#fff"/>
    <path d="M0 -8
             C 6 -2, 9 4, 9 10
             C 9 17, 4 22, 0 22
             C -4 22, -9 17, -9 10
             C -9 4, -6 -2, 0 -8 Z"
          fill="#ddd" opacity="0.7"/>
  </g>
</svg>
